# xmcd
#
# Track frame offsets:
#	150
#	10457
#	19822
#	31894
#	43251
#	50946
#	61731
#	72101
#	83282
#	93817
#	106746
#	116495
#	124670
#	137185
#	146725
#	160095
#	172020
#	183816
#	193952
#	204167
#	217039
#	226954
#	237247
#	246622
#	256189
#	264812
#	278100
#	290347
#	301734
#	313706
#	325786
#	341117
#
# Disc length: 4733 seconds
#
# Revision: 1
# Processed by: cddbd v1.5.2PL0 Copyright (c) Steve Scherf et al.
# Submitted via: EasyCDDAExtractor 8.2.3.1
#
DISCID=c9127b20
DTITLE=Various Artist - Another Story Vol1
DYEAR=1966
DGENRE=Country
TTITLE0=Ernest Tubb and The Texas Troubadours - Time Changes Everything
TTITLE1=Ernest Tubb and The Texas Troubadours - E T  Blues
TTITLE2=Ernest Tubb and The Texas Troubadours - Before I Lost You
TTITLE3=Ernest Tubb and The Texas Troubadours - My Baby's Comin' Home [outtake]
TTITLE4=Ernest Tubb and The Texas Troubadours - Cool It
TTITLE5=Ernest Tubb and The Texas Troubadours - My Baby's Comin' Home
TTITLE6=Ernest Tubb and The Texas Troubadours - Gone
TTITLE7=Ernest Tubb and The Texas Troubadours - Honey Fingers
TTITLE8=Ernest Tubb and The Texas Troubadours - Take That
TTITLE9=Ernest Tubb and The Texas Troubadours - Almost Everything A Lonely Boy N
TTITLE9=eeds
TTITLE10=Ernest Tubb and The Texas Troubadours - Gardenia Waltz
TTITLE11=Ernest Tubb and The Texas Troubadours - Walking The Floor Over You
TTITLE12=Ernest Tubb and The Texas Troubadours - Another Story  Another Time  An
TTITLE12=other Place
TTITLE13=Ernest Tubb and The Texas Troubadours - There's No Room In My Heart (Fo
TTITLE13=r The Blues)
TTITLE14=Ernest Tubb and The Texas Troubadours and Loretta Lynn - Yearning (w/Lore
TTITLE14=tta Lynn)
TTITLE15=Ernest Tubb and The Texas Troubadours and Loretta Lynn - Sweet Thang
TTITLE16=Ernest Tubb and The Texas Troubadours and Loretta Lynn - Let's Stop Right
TTITLE16=Where We Are
TTITLE17=Ernest Tubb and The Texas Troubadours and Loretta Lynn - Beautiful Unhapp
TTITLE17=y Home
TTITLE18=Ernest Tubb and The Texas Troubadours and Loretta Lynn - I'm Bitin' My Fi
TTITLE18=ngernails (And Thinking Of You)
TTITLE19=Ernest Tubb and The Texas Troubadours and Loretta Lynn - Love Is No Excus
TTITLE19=e
TTITLE20=Ernest Tubb and The Texas Troubadours and Loretta Lynn - One To Ten
TTITLE21=Ernest Tubb and The Texas Troubadours and Loretta Lynn - The Thin Grey Li
TTITLE21=ne
TTITLE22=Ernest Tubb and The Texas Troubadours and Loretta Lynn - Beautiful Friend
TTITLE22=ship
TTITLE23=Ernest Tubb and The Texas Troubadours and Loretta Lynn - We'll Never Chan
TTITLE23=ge
TTITLE24=Ernest Tubb and The Texas Troubadours and Loretta Lynn - Bartender
TTITLE25=Ernest Tubb and The Texas Troubadours and Loretta Lynn - I'm Not Leavin' 
TTITLE25=You (It's All In Your Mind)
TTITLE26=Ernest Tubb and The Texas Troubadours - Yesterday's Winner Is A Loser T
TTITLE26=oday
TTITLE27=Ernest Tubb and The Texas Troubadours - In The Jailhouse Now
TTITLE28=Ernest Tubb and The Texas Troubadours - Apartment # 9
TTITLE29=Ernest Tubb and The Texas Troubadours - Bring Your Heart Home
TTITLE30=Ernest Tubb and The Texas Troubadours - The Cold Hard Facts Of Life
TTITLE31=Ernest Tubb and The Texas Troubadours - Taking It Easy Here
EXTD=
EXTT0=
EXTT1=
EXTT2=
EXTT3=
EXTT4=
EXTT5=
EXTT6=
EXTT7=
EXTT8=
EXTT9=
EXTT10=
EXTT11=
EXTT12=
EXTT13=
EXTT14=
EXTT15=
EXTT16=
EXTT17=
EXTT18=
EXTT19=
EXTT20=
EXTT21=
EXTT22=
EXTT23=
EXTT24=
EXTT25=
EXTT26=
EXTT27=
EXTT28=
EXTT29=
EXTT30=
EXTT31=
PLAYORDER=
